# xmcd
# Track frame offsets:
# 150
# 11503
# 29540
#
# Disc length: 639 seconds
# Revision: 0
# Processed by: cddbd v1.4PL0 Copyright (c) Steve Scherf et al.
# Submitted via: VisiTrax 2.9.5.181 - For more info visit www.synapsa.com
#
DISCID=1a027d03
DTITLE=Alan Jackson - Chattahoochee Dance Single Promo
DYEAR=1992
DGENRE=Country
TTITLE0=Album Version
TTITLE1=Club Mix #1
TTITLE2=Club Mix #2
EXTD=
EXTT0=
EXTT1=
EXTT2=
PLAYORDER=
